<?xml version="1.0" encoding="UTF-8" standalone="no"?>
<!-- Created with Inkscape (http://www.inkscape.org/) -->

<svg
   width="101.14228mm"
   height="99.367371mm"
   viewBox="0 0 101.14228 99.367371"
   version="1.1"
   id="svg5"
   xml:space="preserve"
   xmlns="http://www.w3.org/2000/svg"
   xmlns:svg="http://www.w3.org/2000/svg"><defs
     id="defs2"><marker
       style="overflow:visible"
       id="Arrow4"
       refX="0"
       refY="0"
       orient="auto-start-reverse"
       markerWidth="5"
       markerHeight="6"
       viewBox="0 0 5 6"
       preserveAspectRatio="xMidYMid"><path
         style="fill:context-stroke;fill-rule:evenodd;stroke:none"
         d="m 1,0 -3,3 h -2 l 3,-3 -3,-3 h 2 z"
         id="path1741" /></marker></defs><g
     id="layer1"
     transform="translate(-104.8304,-185.3795)"><g
       aria-label="h"
       transform="translate(-1.5054531,1.2950992)"
       id="text1162"
       style="font-size:50.8px;font-family:Calibri;-inkscape-font-specification:Calibri;word-spacing:0.341312px;white-space:pre;inline-size:42.623;fill:none;stroke:#000000;stroke-width:0.1;stroke-linejoin:round;paint-order:stroke markers fill;stop-color:#000000"><path
         d="m 55.95983,31.904626 -5.953125,20.538281 q 5.109766,-7.317383 10.045899,-7.317383 2.232421,0 3.596679,1.364258 1.364258,1.339453 1.364258,3.646289 0,1.984375 -0.768945,4.39043 l -3.125391,9.773046 q -0.322461,0.992188 -0.322461,1.860352 0,0.545703 0.272852,0.868164 0.297656,0.297656 0.74414,0.297656 1.016993,0 2.182813,-1.215429 1.835547,-1.934766 3.323828,-5.382617 l 1.463476,0.471289 q -1.562695,4.067968 -3.894335,6.201171 -2.306836,2.108399 -4.340821,2.108399 -1.612304,0 -2.554882,-1.066602 -0.942579,-1.091406 -0.942579,-3.12539 0,-0.992188 0.372071,-2.158008 l 3.12539,-9.872266 q 0.396875,-1.314648 0.396875,-2.629296 0,-1.438672 -0.694531,-2.207618 -0.694531,-0.79375 -1.761133,-0.79375 -1.339453,0 -3.075781,1.190625 -2.629297,1.835547 -4.812109,5.18418 -2.182813,3.323828 -3.100586,6.697266 l -2.257227,8.334374 -4.167187,0.248047 9.450586,-32.891015 q 0.124023,-0.42168 0.124023,-0.843359 0,-0.644922 -0.644922,-0.992188 -0.620117,-0.347265 -2.505273,-0.347265 H 46.06276 l 0.520899,-1.860352 z"
         style="font-style:italic;font-family:'Century Schoolbook';-inkscape-font-specification:'Century Schoolbook Italic';fill:#000000;stroke:none;stroke-width:3.96875;stroke-dasharray:none"
         id="path1217" /><path
         style="fill:#ffffff;fill-opacity:1;stroke:#cecece;stroke-width:1.4;stroke-linejoin:round;stroke-dasharray:none;stroke-opacity:1;marker-start:url(#Arrow4);paint-order:stroke markers fill;stop-color:#000000"
         d="M 130.4726,38.174024 V 67.830288"
         id="path291" /><path
         style="fill:#ffffff;fill-opacity:1;stroke:#cecece;stroke-width:1.4;stroke-linejoin:round;stroke-dasharray:none;stroke-opacity:1;marker-start:url(#Arrow4);paint-order:stroke markers fill;stop-color:#000000"
         d="M 146.43741,66.729334 V 37.073078"
         id="path2618" /><path
         id="rect1"
         style="fill:none;stroke-width:3.96875;stroke-linejoin:round;stroke-dasharray:none;paint-order:stroke markers fill"
         d="m 155.56375,96.308246 -3.76363,4.265894 c -4.58596,0 -39.39291,0 -39.39291,0 v 45.41428 h 62.22514 v -45.41428 h -3.26181 v -4.265894 z" /><text
         xml:space="preserve"
         style="font-size:44.0298px;line-height:normal;font-family:Consolas;-inkscape-font-specification:Consolas;text-decoration-color:#000000;fill:#000000;fill-opacity:1;stroke:none;stroke-width:8.84526;stroke-linejoin:round;stroke-dasharray:none;paint-order:stroke markers fill"
         x="113.88028"
         y="125.91112"
         id="text2"><tspan
           id="tspan2"
           style="font-size:44.0298px;fill:#000000;fill-opacity:1;stroke:none;stroke-width:8.84526"
           x="113.88028"
           y="125.91112">+</tspan></text><path
         id="rect2"
         style="fill:none;stroke:#d8d8d8;stroke-width:3.16899;stroke-linejoin:round;paint-order:stroke markers fill"
         d="m 31.614726,148.3721 v 47.29649 H 80.290825 V 145.56054 L 63.731112,131.43582 36.507475,131.31024" /><path
         style="fill:none;stroke:#d8d8d8;stroke-width:3.16899;stroke-linejoin:round;paint-order:stroke markers fill"
         d="m 63.730849,131.43568 16.559983,14.55271 H 62.97812 Z"
         id="path2" /><text
         xml:space="preserve"
         style="font-size:37.2353px;line-height:normal;font-family:Consolas;-inkscape-font-specification:Consolas;text-decoration-color:#000000;fill:#529343;fill-opacity:1;stroke:none;stroke-width:5.22654;stroke-linejoin:round;paint-order:stroke markers fill"
         x="20.973429"
         y="194.01564"
         id="text3"><tspan
           id="tspan3"
           style="font-weight:bold;font-size:37.2353px;fill:#529343;fill-opacity:1;stroke:none;stroke-width:5.22655"
           x="20.973429"
           y="194.01564">.bib</tspan></text><text
         xml:space="preserve"
         style="font-size:44.0298px;line-height:normal;font-family:Consolas;-inkscape-font-specification:Consolas;text-decoration-color:#000000;fill:#d8d8d8;fill-opacity:1;stroke:none;stroke-width:8.84526;stroke-linejoin:round;stroke-dasharray:none;paint-order:stroke markers fill"
         x="19.789461"
         y="146.98747"
         id="text4"><tspan
           id="tspan4"
           style="font-size:44.0298px;fill:#d8d8d8;fill-opacity:1;stroke:none;stroke-width:8.84526"
           x="19.789461"
           y="146.98747">+</tspan></text><path
         id="path4"
         style="fill:none;stroke:#d8d8d8;stroke-width:3.16899;stroke-linejoin:round;paint-order:stroke markers fill"
         d="m 31.614726,229.16475 v 47.29649 H 80.290825 V 226.35319 L 63.731112,212.22847 36.507475,212.10289" /><path
         style="fill:none;stroke:#d8d8d8;stroke-width:3.16899;stroke-linejoin:round;paint-order:stroke markers fill"
         d="m 63.730849,212.22833 16.559983,14.55271 H 62.97812 Z"
         id="path5" /><text
         xml:space="preserve"
         style="font-size:37.2353px;line-height:normal;font-family:Consolas;-inkscape-font-specification:Consolas;text-decoration-color:#000000;fill:#529343;fill-opacity:1;stroke:none;stroke-width:5.22654;stroke-linejoin:round;paint-order:stroke markers fill"
         x="20.973429"
         y="274.80829"
         id="text5"><tspan
           id="tspan5"
           style="font-weight:bold;font-size:37.2353px;fill:#529343;fill-opacity:1;stroke:none;stroke-width:5.22655"
           x="20.973429"
           y="274.80829">ref</tspan></text><text
         xml:space="preserve"
         style="font-size:44.0298px;line-height:normal;font-family:Consolas;-inkscape-font-specification:Consolas;text-decoration-color:#000000;fill:#d8d8d8;fill-opacity:1;stroke:none;stroke-width:8.84526;stroke-linejoin:round;stroke-dasharray:none;paint-order:stroke markers fill"
         x="19.789461"
         y="227.78012"
         id="text6"><tspan
           id="tspan6"
           style="font-size:44.0298px;fill:#d8d8d8;fill-opacity:1;stroke:none;stroke-width:8.84526"
           x="19.789461"
           y="227.78012">+</tspan></text><g
         style="fill:#d8d8d8;fill-opacity:1"
         id="g6"
         transform="matrix(0.19409386,0,0,0.19409386,106.34556,184.0941)"><g
           id="g1"
           style="fill:#d8d8d8;fill-opacity:1">
	<path
   d="M 233.168,0 C 104.604,0 0,104.604 0,233.168 0,361.733 104.604,466.337 233.168,466.337 361.733,466.337 466.337,361.733 466.337,233.168 466.337,104.604 361.733,0 233.168,0 Z m -9.184,441.874 c -22.321,0 -46.405,-41.384 -59.045,-107.815 h 118.067 c -12.635,66.431 -36.69,107.815 -59.022,107.815 z m -62.87,-131.73 c -2.738,-19.991 -4.437,-41.781 -4.881,-65.018 H 291.74 c -0.443,23.237 -2.148,45.027 -4.869,65.018 z M 24.521,245.126 h 107.704 c 0.443,21.883 2.09,43.859 4.887,65.018 H 38.768 C 30.693,289.826 25.818,267.966 24.521,245.126 Z M 223.984,24.464 c 21.982,0 45.687,40.14 58.484,104.877 H 165.498 C 178.286,64.604 201.996,24.464 223.984,24.464 Z m 62.479,128.781 c 2.978,20.785 4.811,43.596 5.277,67.966 H 156.222 c 0.467,-24.37 2.295,-47.169 5.272,-67.966 z M 132.226,221.211 H 24.521 c 1.354,-23.926 6.568,-46.836 15.332,-67.966 h 97.656 c -3.047,22.075 -4.828,45.067 -5.283,67.966 z m 183.523,23.915 h 126.065 c -1.296,22.84 -6.188,44.7 -14.246,65.018 H 310.855 c 2.791,-21.159 4.45,-43.135 4.894,-65.018 z m 0,-23.915 c -0.468,-22.898 -2.254,-45.891 -5.29,-67.966 h 116.023 c 8.77,21.13 13.978,44.04 15.332,67.966 z M 414.596,129.33 H 306.617 C 298.723,87.263 285.89,50.486 268.422,27.108 330.952,37.799 384.06,76.205 414.596,129.33 Z M 176.073,32.036 c -15.7,23.459 -27.348,58.1 -34.699,97.305 H 51.741 C 78.657,82.505 123.064,47.1 176.073,32.036 Z M 49.96,334.058 h 90.895 c 7.311,40.403 19.133,76.205 35.219,100.26 -54.13,-15.414 -99.402,-51.94 -126.114,-100.26 z m 218.45,105.164 c 17.865,-23.938 30.874,-61.889 38.697,-105.164 H 416.381 C 386.15,388.743 332.12,428.339 268.41,439.222 Z"
   id="path1"
   style="fill:#d8d8d8;fill-opacity:1" />
</g></g><path
         d="m 180.52319,273.34413 a 16.847303,16.847303 0 1 0 0,-33.6946 16.847303,16.847303 0 0 0 0,33.6946 z m 15.65452,-4.05346 11.2978,11.2978 -2.86067,2.86067 -11.2978,-11.2978 a 20.216764,20.216764 0 1 1 2.86067,-2.86067 z"
         fill="#000000"
         id="path1-4"
         style="fill:#d8d8d8;fill-opacity:1;stroke-width:0.00526479" /></g></g></svg>
