<?xml version="1.0" encoding="UTF-8" standalone="no"?>
<!-- Created with Inkscape (http://www.inkscape.org/) -->

<svg
   width="100mm"
   height="100mm"
   viewBox="0 0 100 99.999998"
   version="1.1"
   id="svg5"
   inkscape:version="1.3.2 (091e20e, 2023-11-25, custom)"
   sodipodi:docname="icons.svg"
   inkscape:export-filename="icon.svg"
   inkscape:export-xdpi="96"
   inkscape:export-ydpi="96"
   xml:space="preserve"
   xmlns:inkscape="http://www.inkscape.org/namespaces/inkscape"
   xmlns:sodipodi="http://sodipodi.sourceforge.net/DTD/sodipodi-0.dtd"
   xmlns="http://www.w3.org/2000/svg"
   xmlns:svg="http://www.w3.org/2000/svg"><sodipodi:namedview
     id="namedview7"
     pagecolor="#ffffff"
     bordercolor="#000000"
     borderopacity="0.25"
     inkscape:showpageshadow="2"
     inkscape:pageopacity="0.0"
     inkscape:pagecheckerboard="0"
     inkscape:deskcolor="#d1d1d1"
     inkscape:document-units="mm"
     showgrid="false"
     inkscape:zoom="0.64"
     inkscape:cx="2290.625"
     inkscape:cy="-66.40625"
     inkscape:window-width="1920"
     inkscape:window-height="1017"
     inkscape:window-x="-8"
     inkscape:window-y="-8"
     inkscape:window-maximized="1"
     inkscape:current-layer="layer1"><inkscape:page
       x="0"
       y="0"
       width="100"
       height="100"
       id="page1"
       margin="0"
       bleed="0" /><inkscape:page
       x="110"
       y="0"
       width="100"
       height="100"
       id="page2"
       margin="0"
       bleed="0" /><inkscape:page
       x="220"
       y="0"
       width="100"
       height="100"
       id="page3"
       margin="0"
       bleed="0" /><inkscape:page
       x="330"
       y="0"
       width="100"
       height="100"
       id="page4"
       margin="0"
       bleed="0" /><inkscape:page
       x="440"
       y="0"
       width="100"
       height="100"
       id="page5"
       margin="0"
       bleed="0" /><inkscape:page
       x="550"
       y="0"
       width="100"
       height="100"
       id="page6"
       margin="0"
       bleed="0" /><inkscape:page
       x="660"
       y="0"
       width="100"
       height="100"
       id="page7"
       margin="0"
       bleed="0"
       inkscape:export-filename=".\import_bib.svg"
       inkscape:export-xdpi="96"
       inkscape:export-ydpi="96" /><inkscape:page
       x="770"
       y="0"
       width="100"
       height="100"
       id="page8"
       margin="0"
       bleed="0"
       inkscape:export-filename=".\open_pdf.svg"
       inkscape:export-xdpi="96"
       inkscape:export-ydpi="96" /></sodipodi:namedview><defs
     id="defs2" /><g
     inkscape:label="Layer 1"
     inkscape:groupmode="layer"
     id="layer1"><path
       style="fill:none;stroke:#000000;stroke-width:3.96875;stroke-linejoin:round;stroke-dasharray:none;stroke-opacity:1;paint-order:stroke markers fill;stop-color:#000000"
       d="m 26.847247,22.079979 c 0,0 41.274507,-3.889087 45.414506,-2.634544 4.13999,1.254546 3.04226,5.927722 3.04226,6.680449 0,0.752726 -4.42226,52.283138 -4.92408,53.412218 -0.50182,1.1291 -40.521781,5.26909 -40.521781,5.26909 0,0 7.903631,-47.170865 6.147269,-55.576312 -1.756363,-8.405444 -8.405448,-6.774537 -9.409084,-7.025447 -1.003633,-0.250909 -6.398175,12.796352 -6.27272,14.050898 0.125455,1.254543 1.730269,3.959231 3.38727,3.638176 2.195454,-0.425384 7.025447,-6.774538 2.132724,-9.032719 L 36.25633,30.234517"
       id="path292"
       sodipodi:nodetypes="cssscsssscc"
       inkscape:export-filename="icon.svg"
       inkscape:export-xdpi="96"
       inkscape:export-ydpi="96" /><path
       style="fill:none;stroke:#000000;stroke-width:3.96875;stroke-linejoin:round;stroke-dasharray:none;stroke-opacity:1;paint-order:stroke markers fill;stop-color:#000000"
       d="M 24.021754,40.026729 36.005421,39.769054"
       id="path902" /><path
       d="m 54.454377,33.199725 -5.953125,20.538281 q 5.109766,-7.317383 10.045899,-7.317383 2.232421,0 3.596679,1.364258 1.364258,1.339453 1.364258,3.646289 0,1.984375 -0.768945,4.39043 l -3.125391,9.773046 q -0.322461,0.992188 -0.322461,1.860352 0,0.545703 0.272852,0.868164 0.297656,0.297656 0.74414,0.297656 1.016993,0 2.182813,-1.215429 1.835547,-1.934766 3.323828,-5.382617 l 1.463476,0.471289 q -1.562695,4.067968 -3.894335,6.201171 -2.306836,2.108399 -4.340821,2.108399 -1.612304,0 -2.554882,-1.066602 -0.942579,-1.091406 -0.942579,-3.12539 0,-0.992188 0.372071,-2.158008 l 3.12539,-9.872266 q 0.396875,-1.314648 0.396875,-2.629296 0,-1.438672 -0.694531,-2.207618 -0.694531,-0.79375 -1.761133,-0.79375 -1.339453,0 -3.075781,1.190625 -2.629297,1.835547 -4.812109,5.18418 -2.182813,3.323828 -3.100586,6.697266 l -2.257227,8.334374 -4.167187,0.248047 9.450586,-32.891015 q 0.124023,-0.42168 0.124023,-0.843359 0,-0.644922 -0.644922,-0.992188 -0.620117,-0.347265 -2.505273,-0.347265 h -1.438672 l 0.520899,-1.860352 z"
       style="font-style:italic;font-size:50.8px;font-family:'Century Schoolbook';-inkscape-font-specification:'Century Schoolbook Italic';word-spacing:0.341312px;white-space:pre;inline-size:42.623;fill:#000000;stroke:none;stroke-width:3.96875;stroke-linejoin:round;stroke-dasharray:none;paint-order:stroke markers fill"
       id="path1217" /><path
       id="rect1"
       style="font-size:50.8px;font-family:Calibri;-inkscape-font-specification:Calibri;word-spacing:0.341312px;white-space:pre;inline-size:42.623;fill:none;stroke:#000000;stroke-width:4.44471;stroke-linejoin:round;stroke-dasharray:none;paint-order:stroke markers fill"
       d="m 494.32088,24.564222 -4.21477,4.777479 c -5.13582,0 -44.11747,0 -44.11747,0 v 50.860655 h 69.68862 V 29.341701 h -3.65305 v -4.777479 z"
       sodipodi:nodetypes="ccccccccc"
       inkscape:export-filename=".\addCat.svg"
       inkscape:export-xdpi="96"
       inkscape:export-ydpi="96" /><text
       xml:space="preserve"
       style="font-size:44.0298px;line-height:normal;font-family:Consolas;-inkscape-font-specification:Consolas;text-decoration-color:#000000;word-spacing:0.341312px;white-space:pre;inline-size:42.623;display:inline;fill:#000000;fill-opacity:1;stroke:none;stroke-width:8.84526;stroke-linejoin:round;stroke-dasharray:none;paint-order:stroke markers fill"
       x="113.88028"
       y="125.91112"
       id="text2"
       transform="matrix(1.1199244,0,0,1.1199244,320.10124,-83.294036)"><tspan
         x="113.88028"
         y="125.91112"
         id="tspan3">+</tspan></text><text
       xml:space="preserve"
       style="font-size:37.2353px;line-height:normal;font-family:Consolas;-inkscape-font-specification:Consolas;text-decoration-color:#000000;word-spacing:0.341312px;white-space:pre;inline-size:42.623;display:inline;fill:#529343;fill-opacity:1;stroke:none;stroke-width:5.22654;stroke-linejoin:round;paint-order:stroke markers fill"
       x="20.973429"
       y="194.01564"
       id="text3"
       transform="translate(-1.5054531,1.2950992)"><tspan
         x="20.973429"
         y="194.01564"
         id="tspan5"><tspan
           dx="0 20.472141 20.472141 20.472141"
           style="font-weight:bold;stroke-width:5.22655"
           id="tspan4">.bib</tspan></tspan></text><path
       id="path4"
       style="font-size:50.8px;font-family:Calibri;-inkscape-font-specification:Calibri;word-spacing:0.341312px;white-space:pre;inline-size:42.623;fill:none;stroke:#d8d8d8;stroke-width:4.29198;stroke-linejoin:round;paint-order:stroke markers fill"
       d="m 674.45307,32.759925 v 64.065073 h 65.93422 V 28.951633 L 717.95618,9.8191883 681.08035,9.6490933"
       sodipodi:nodetypes="cccccc"
       inkscape:export-filename="import_ref.svg"
       inkscape:export-xdpi="96"
       inkscape:export-ydpi="96" /><path
       style="font-size:50.8px;font-family:Calibri;-inkscape-font-specification:Calibri;word-spacing:0.341312px;white-space:pre;inline-size:42.623;fill:none;stroke:#d8d8d8;stroke-width:4.29198;stroke-linejoin:round;paint-order:stroke markers fill"
       d="m 717.95579,9.8190193 22.4315,19.7120747 h -23.45087 z"
       id="path5"
       sodipodi:nodetypes="cccc" /><text
       xml:space="preserve"
       style="font-size:37.2353px;line-height:normal;font-family:Consolas;-inkscape-font-specification:Consolas;text-decoration-color:#000000;word-spacing:0.341312px;white-space:pre;inline-size:42.623;display:inline;fill:#529343;fill-opacity:1;stroke:none;stroke-width:5.22654;stroke-linejoin:round;paint-order:stroke markers fill"
       x="20.973429"
       y="274.80829"
       id="text5"
       transform="translate(-1.5054531,1.2950992)"><tspan
         x="20.973429"
         y="274.80829"
         id="tspan8"><tspan
           dx="0 20.472141 20.472141"
           style="font-weight:bold;stroke-width:5.22655"
           id="tspan6">ref</tspan></tspan></text><text
       xml:space="preserve"
       style="font-size:44.0298px;line-height:normal;font-family:Consolas;-inkscape-font-specification:Consolas;text-decoration-color:#000000;word-spacing:0.341312px;white-space:pre;inline-size:42.623;display:inline;fill:#d8d8d8;fill-opacity:1;stroke:none;stroke-width:8.84526;stroke-linejoin:round;stroke-dasharray:none;paint-order:stroke markers fill"
       x="19.789461"
       y="227.78012"
       id="text6"
       transform="matrix(1.3545369,0,0,1.3545369,631.62981,-277.65217)"><tspan
         x="19.789461"
         y="227.78012"
         id="tspan9">+</tspan></text><g
       style="font-size:50.8px;font-family:Calibri;-inkscape-font-specification:Calibri;word-spacing:0.341312px;white-space:pre;inline-size:42.623;fill:#d8d8d8;fill-opacity:1;stroke:#000000;stroke-width:0.1;stroke-linejoin:round;paint-order:stroke markers fill"
       id="g6"
       transform="matrix(0.19409386,0,0,0.19409386,104.84011,185.3892)"
       inkscape:export-filename="article_search.svg"
       inkscape:export-xdpi="96"
       inkscape:export-ydpi="96"><g
         id="g1"
         style="fill:#d8d8d8;fill-opacity:1">
	<path
   d="M 233.168,0 C 104.604,0 0,104.604 0,233.168 0,361.733 104.604,466.337 233.168,466.337 361.733,466.337 466.337,361.733 466.337,233.168 466.337,104.604 361.733,0 233.168,0 Z m -9.184,441.874 c -22.321,0 -46.405,-41.384 -59.045,-107.815 h 118.067 c -12.635,66.431 -36.69,107.815 -59.022,107.815 z m -62.87,-131.73 c -2.738,-19.991 -4.437,-41.781 -4.881,-65.018 H 291.74 c -0.443,23.237 -2.148,45.027 -4.869,65.018 z M 24.521,245.126 h 107.704 c 0.443,21.883 2.09,43.859 4.887,65.018 H 38.768 C 30.693,289.826 25.818,267.966 24.521,245.126 Z M 223.984,24.464 c 21.982,0 45.687,40.14 58.484,104.877 H 165.498 C 178.286,64.604 201.996,24.464 223.984,24.464 Z m 62.479,128.781 c 2.978,20.785 4.811,43.596 5.277,67.966 H 156.222 c 0.467,-24.37 2.295,-47.169 5.272,-67.966 z M 132.226,221.211 H 24.521 c 1.354,-23.926 6.568,-46.836 15.332,-67.966 h 97.656 c -3.047,22.075 -4.828,45.067 -5.283,67.966 z m 183.523,23.915 h 126.065 c -1.296,22.84 -6.188,44.7 -14.246,65.018 H 310.855 c 2.791,-21.159 4.45,-43.135 4.894,-65.018 z m 0,-23.915 c -0.468,-22.898 -2.254,-45.891 -5.29,-67.966 h 116.023 c 8.77,21.13 13.978,44.04 15.332,67.966 z M 414.596,129.33 H 306.617 C 298.723,87.263 285.89,50.486 268.422,27.108 330.952,37.799 384.06,76.205 414.596,129.33 Z M 176.073,32.036 c -15.7,23.459 -27.348,58.1 -34.699,97.305 H 51.741 C 78.657,82.505 123.064,47.1 176.073,32.036 Z M 49.96,334.058 h 90.895 c 7.311,40.403 19.133,76.205 35.219,100.26 -54.13,-15.414 -99.402,-51.94 -126.114,-100.26 z m 218.45,105.164 c 17.865,-23.938 30.874,-61.889 38.697,-105.164 H 416.381 C 386.15,388.743 332.12,428.339 268.41,439.222 Z"
   id="path1"
   style="fill:#d8d8d8;fill-opacity:1" />
</g></g><path
       d="m 179.01774,274.63923 a 16.847303,16.847303 0 1 0 0,-33.6946 16.847303,16.847303 0 0 0 0,33.6946 z m 15.65452,-4.05346 11.2978,11.2978 -2.86067,2.86067 -11.2978,-11.2978 a 20.216764,20.216764 0 1 1 2.86067,-2.86067 z"
       fill="#000000"
       id="path1-4"
       style="font-size:50.8px;font-family:Calibri;-inkscape-font-specification:Calibri;word-spacing:0.341312px;white-space:pre;inline-size:42.623;fill:#d8d8d8;fill-opacity:1;stroke:#000000;stroke-width:0.00526479;stroke-linejoin:round;paint-order:stroke markers fill" /><path
       id="path8"
       style="font-size:50.8px;font-family:Calibri;-inkscape-font-specification:Calibri;word-spacing:0.341312px;white-space:pre;inline-size:42.623;fill:none;stroke:#d8d8d8;stroke-width:3.54859;stroke-linejoin:round;paint-order:stroke markers fill"
       d="m 246.04616,90.63956 h 54.51318 v -56.1174 l -18.54531,-15.818612 -36.00634,-0.07805 z"
       sodipodi:nodetypes="cccccc"
       inkscape:export-filename="open_notes.svg"
       inkscape:export-xdpi="96"
       inkscape:export-ydpi="96" /><path
       style="font-size:50.8px;font-family:Calibri;-inkscape-font-specification:Calibri;word-spacing:0.341312px;white-space:pre;inline-size:42.623;fill:none;stroke:#d8d8d8;stroke-width:3.54859;stroke-linejoin:round;paint-order:stroke markers fill"
       d="m 282.01377,18.703408 18.54558,16.297994 h -19.38883 z"
       id="path9"
       sodipodi:nodetypes="cccc" /><text
       xml:space="preserve"
       style="font-size:43.6635px;line-height:normal;font-family:Consolas;-inkscape-font-specification:Consolas;text-decoration-color:#000000;fill:#529343;fill-opacity:1;stroke:none;stroke-width:5.44874;stroke-linejoin:round;paint-order:stroke markers fill"
       x="225.92963"
       y="90.13723"
       id="text10"><tspan
         sodipodi:role="line"
         id="tspan10"
         style="font-weight:bold;font-size:43.6635px;fill:#529343;fill-opacity:1;stroke-width:5.44875"
         x="225.92963"
         y="90.13723">.md</tspan></text><path
       d="m 244.70064,44.9176 a 18.867797,18.867797 0 1 0 0,-37.7355601 18.867797,18.867797 0 0 0 0,37.7355601 z m 17.53208,-4.53964 12.65268,12.652726 -3.20377,3.203721 -12.65268,-12.652677 a 22.64124,22.64124 0 1 1 3.20377,-3.20377 z"
       fill="#000000"
       id="path10"
       style="font-size:50.8px;font-family:Calibri;-inkscape-font-specification:Calibri;word-spacing:0.341312px;white-space:pre;inline-size:42.623;fill:#d8d8d8;fill-opacity:1;stroke:#000000;stroke-width:0.00589551;stroke-linejoin:round;paint-order:stroke markers fill" /><path
       id="path11"
       style="font-size:50.8px;font-family:Calibri;-inkscape-font-specification:Calibri;word-spacing:0.341312px;white-space:pre;inline-size:42.623;fill:none;stroke:#d8d8d8;stroke-width:3.54859;stroke-linejoin:round;paint-order:stroke markers fill"
       d="m 354.59751,89.914668 h 54.51318 V 33.797347 l -18.54531,-15.818758 -36.00634,-0.07808 z"
       sodipodi:nodetypes="cccccc"
       inkscape:export-filename="open_pdf.svg"
       inkscape:export-xdpi="96"
       inkscape:export-ydpi="96" /><path
       style="font-size:50.8px;font-family:Calibri;-inkscape-font-specification:Calibri;word-spacing:0.341312px;white-space:pre;inline-size:42.623;fill:none;stroke:#d8d8d8;stroke-width:3.54859;stroke-linejoin:round;paint-order:stroke markers fill"
       d="M 390.56512,17.978449 409.1107,34.276443 H 389.72187 Z"
       id="path12"
       sodipodi:nodetypes="cccc" /><text
       xml:space="preserve"
       style="font-size:43.6635px;line-height:normal;font-family:Consolas;-inkscape-font-specification:Consolas;text-decoration-color:#000000;fill:#529343;fill-opacity:1;stroke:none;stroke-width:5.44874;stroke-linejoin:round;paint-order:stroke markers fill"
       x="334.4823"
       y="89.412231"
       id="text12"><tspan
         sodipodi:role="line"
         id="tspan12"
         style="font-weight:bold;font-size:43.6635px;fill:#529343;fill-opacity:1;stroke-width:5.44875"
         x="334.4823"
         y="89.412231">.pdf</tspan></text><path
       d="m 353.25199,44.192641 a 18.867797,18.867797 0 1 0 0,-37.7354446 18.867797,18.867797 0 0 0 0,37.7354446 z m 17.53208,-4.539494 12.65268,12.652677 -3.20377,3.203767 -12.65268,-12.652728 a 22.64124,22.64124 0 1 1 3.20377,-3.203716 z"
       fill="#000000"
       id="path13"
       style="font-size:50.8px;font-family:Calibri;-inkscape-font-specification:Calibri;word-spacing:0.341312px;white-space:pre;inline-size:42.623;fill:#d8d8d8;fill-opacity:1;stroke:#000000;stroke-width:0.00589551;stroke-linejoin:round;paint-order:stroke markers fill" /><path
       id="path14"
       style="font-size:50.8px;font-family:Calibri;-inkscape-font-specification:Calibri;word-spacing:0.341312px;white-space:pre;inline-size:42.623;fill:none;stroke:#d8d8d8;stroke-width:3.54859;stroke-linejoin:round;paint-order:stroke markers fill"
       d="M 811.65427,73.763518 H 866.1682 V 17.646246 L 847.62238,1.8275291 811.61626,1.7495876 Z"
       sodipodi:nodetypes="cccccc"
       inkscape:export-filename="open_pdf_md.svg"
       inkscape:export-xdpi="96"
       inkscape:export-ydpi="96" /><path
       style="font-size:50.8px;font-family:Calibri;-inkscape-font-specification:Calibri;word-spacing:0.341312px;white-space:pre;inline-size:42.623;fill:none;stroke:#d8d8d8;stroke-width:3.54859;stroke-linejoin:round;paint-order:stroke markers fill"
       d="M 847.62207,1.8273743 866.16821,18.125342 H 846.77919 Z"
       id="path15"
       sodipodi:nodetypes="cccc" /><text
       xml:space="preserve"
       style="font-size:43.6635px;line-height:normal;font-family:Consolas;-inkscape-font-specification:Consolas;text-decoration-color:#000000;fill:#529343;fill-opacity:1;stroke:none;stroke-width:5.44874;stroke-linejoin:round;paint-order:stroke markers fill"
       x="791.53973"
       y="73.260773"
       id="text15"><tspan
         sodipodi:role="line"
         id="tspan15"
         style="font-weight:bold;font-size:43.6635px;fill:#529343;fill-opacity:1;stroke-width:5.44875"
         x="791.53973"
         y="73.260773">.md</tspan></text><path
       d="m 880.68391,35.680868 a 18.867797,18.867797 0 1 0 0,-37.7354489 18.867797,18.867797 0 0 0 0,37.7354489 z m 17.53187,-4.539494 12.65273,12.65268 -3.20373,3.20377 -12.65273,-12.652738 a 22.64124,22.64124 0 1 1 3.20373,-3.203712 z"
       fill="#000000"
       id="path16"
       style="font-size:50.8px;font-family:Calibri;-inkscape-font-specification:Calibri;word-spacing:0.341312px;white-space:pre;inline-size:42.623;fill:#d8d8d8;fill-opacity:1;stroke:#000000;stroke-width:0.00589551;stroke-linejoin:round;paint-order:stroke markers fill" /><path
       id="path17"
       style="font-size:50.8px;font-family:Calibri;-inkscape-font-specification:Calibri;word-spacing:0.341312px;white-space:pre;inline-size:42.623;fill:none;stroke:#d8d8d8;stroke-width:3.54859;stroke-linejoin:round;paint-order:stroke markers fill"
       d="m 837.02129,75.78035 0.0341,25.02031 h 54.51403 V 44.683366 l -18.54536,-15.818612 -6.6067,-0.07835"
       sodipodi:nodetypes="cccccc"
       inkscape:export-filename="import_bib.svg"
       inkscape:export-xdpi="96"
       inkscape:export-ydpi="96" /><path
       style="font-size:50.8px;font-family:Calibri;-inkscape-font-specification:Calibri;word-spacing:0.341312px;white-space:pre;inline-size:42.623;fill:none;stroke:#d8d8d8;stroke-width:3.54859;stroke-linejoin:round;paint-order:stroke markers fill"
       d="m 873.02715,28.864614 18.5458,16.297984 h -19.38883 z"
       id="path18"
       sodipodi:nodetypes="cccc" /><text
       xml:space="preserve"
       style="font-size:43.6635px;line-height:normal;font-family:Consolas;-inkscape-font-specification:Consolas;text-decoration-color:#000000;fill:#529343;fill-opacity:1;stroke:none;stroke-width:5.44874;stroke-linejoin:round;paint-order:stroke markers fill"
       x="816.94202"
       y="100.29778"
       id="text18"><tspan
         sodipodi:role="line"
         id="tspan18"
         style="font-weight:bold;font-size:43.6635px;fill:#529343;fill-opacity:1;stroke-width:5.44875"
         x="816.94202"
         y="100.29778">.pdf</tspan></text><rect
       style="fill:#529343;stroke-width:3.16899;stroke-linejoin:round;paint-order:stroke markers fill;fill-opacity:0"
       id="rect10"
       width="99.999992"
       height="100"
       x="550"
       y="0" /><rect
       style="fill:#529343;stroke-width:3.16899;stroke-linejoin:round;paint-order:stroke markers fill;fill-opacity:0"
       id="rect11"
       width="100.00001"
       height="100"
       x="660"
       y="0" /><path
       id="path19"
       style="font-size:50.8px;font-family:Calibri;-inkscape-font-specification:Calibri;word-spacing:0.341312px;white-space:pre;inline-size:42.623;fill:none;stroke:#d8d8d8;stroke-width:4.29198;stroke-linejoin:round;paint-order:stroke markers fill"
       d="m 564.38571,32.759925 v 64.065073 h 65.93422 V 28.951633 L 607.88882,9.8191883 571.01299,9.6490933"
       sodipodi:nodetypes="cccccc"
       inkscape:export-filename="import_ref.svg"
       inkscape:export-xdpi="96"
       inkscape:export-ydpi="96" /><path
       style="font-size:50.8px;font-family:Calibri;-inkscape-font-specification:Calibri;word-spacing:0.341312px;white-space:pre;inline-size:42.623;fill:none;stroke:#d8d8d8;stroke-width:4.29198;stroke-linejoin:round;paint-order:stroke markers fill"
       d="m 607.88843,9.8190193 22.4315,19.7120747 h -23.45087 z"
       id="path20"
       sodipodi:nodetypes="cccc" /><text
       xml:space="preserve"
       style="font-size:44.0298px;line-height:normal;font-family:Consolas;-inkscape-font-specification:Consolas;text-decoration-color:#000000;word-spacing:0.341312px;white-space:pre;inline-size:42.623;display:inline;fill:#d8d8d8;fill-opacity:1;stroke:none;stroke-width:8.84526;stroke-linejoin:round;stroke-dasharray:none;paint-order:stroke markers fill"
       x="19.789461"
       y="227.78012"
       id="text20"
       transform="matrix(1.3545369,0,0,1.3545369,521.56245,-277.65217)"><tspan
         x="19.789461"
         y="227.78012"
         id="tspan11">+</tspan></text><text
       xml:space="preserve"
       style="font-size:43.6635px;line-height:normal;font-family:Consolas;-inkscape-font-specification:Consolas;text-decoration-color:#000000;fill:#529343;fill-opacity:1;stroke:none;stroke-width:5.44874;stroke-linejoin:round;paint-order:stroke markers fill"
       x="549.34949"
       y="93.975517"
       id="text7"><tspan
         sodipodi:role="line"
         id="tspan7"
         style="font-weight:bold;font-size:43.6635px;fill:#529343;fill-opacity:1;stroke-width:5.44875"
         x="549.34949"
         y="93.975517">.bib</tspan></text><text
       xml:space="preserve"
       style="font-size:43.6635px;line-height:normal;font-family:Consolas;-inkscape-font-specification:Consolas;text-decoration-color:#000000;fill:#529343;fill-opacity:1;stroke:none;stroke-width:5.44874;stroke-linejoin:round;paint-order:stroke markers fill"
       x="677.64435"
       y="93.975517"
       id="text21"><tspan
         sodipodi:role="line"
         id="tspan21"
         style="font-weight:bold;font-size:43.6635px;fill:#529343;fill-opacity:1;stroke-width:5.44875"
         x="677.64435"
         y="93.975517">ref</tspan></text></g></svg>
