<?xml version="1.0" encoding="UTF-8" standalone="no"?>
<!-- Created with Inkscape (http://www.inkscape.org/) -->

<svg
   width="210mm"
   height="297mm"
   viewBox="0 0 210 297"
   version="1.1"
   id="svg5"
   inkscape:version="1.2.2 (732a01da63, 2022-12-09)"
   sodipodi:docname="icons.svg"
   xmlns:inkscape="http://www.inkscape.org/namespaces/inkscape"
   xmlns:sodipodi="http://sodipodi.sourceforge.net/DTD/sodipodi-0.dtd"
   xmlns="http://www.w3.org/2000/svg"
   xmlns:svg="http://www.w3.org/2000/svg">
  <sodipodi:namedview
     id="namedview7"
     pagecolor="#ffffff"
     bordercolor="#000000"
     borderopacity="0.25"
     inkscape:showpageshadow="2"
     inkscape:pageopacity="0.0"
     inkscape:pagecheckerboard="0"
     inkscape:deskcolor="#d1d1d1"
     inkscape:document-units="mm"
     showgrid="false"
     inkscape:zoom="2.1089996"
     inkscape:cx="375.5335"
     inkscape:cy="208.15556"
     inkscape:window-width="1920"
     inkscape:window-height="1017"
     inkscape:window-x="-8"
     inkscape:window-y="-8"
     inkscape:window-maximized="1"
     inkscape:current-layer="text1162" />
  <defs
     id="defs2">
    <marker
       style="overflow:visible"
       id="Arrow4"
       refX="0"
       refY="0"
       orient="auto-start-reverse"
       inkscape:stockid="Arrow4"
       markerWidth="5"
       markerHeight="6"
       viewBox="0 0 5 6"
       inkscape:isstock="true"
       inkscape:collect="always"
       preserveAspectRatio="xMidYMid">
      <path
         style="fill:context-stroke;fill-rule:evenodd;stroke:none"
         d="m 1,0 -3,3 h -2 l 3,-3 -3,-3 h 2 z"
         id="path1741" />
    </marker>
  </defs>
  <g
     inkscape:label="Layer 1"
     inkscape:groupmode="layer"
     id="layer1">
    <path
       style="fill:none;stroke:#000000;stroke-width:0.6;stroke-linejoin:round;stroke-dasharray:none;stroke-opacity:1;paint-order:stroke markers fill;stop-color:#000000"
       d="m 26.847247,22.079979 c 0,0 41.274507,-3.889087 45.414506,-2.634544 4.13999,1.254546 3.04226,5.927722 3.04226,6.680449 0,0.752726 -4.42226,52.283138 -4.92408,53.412218 -0.50182,1.1291 -40.521781,5.26909 -40.521781,5.26909 0,0 7.903631,-47.170865 6.147269,-55.576312 -1.756363,-8.405444 -8.405448,-6.774537 -9.409084,-7.025447 -1.003633,-0.250909 -6.398175,12.796352 -6.27272,14.050898 0.125455,1.254543 1.730269,3.959231 3.38727,3.638176 2.195454,-0.425384 7.025447,-6.774538 2.132724,-9.032719 L 36.25633,30.234517"
       id="path292"
       sodipodi:nodetypes="cssscsssscc"
       inkscape:export-filename="icon.svg"
       inkscape:export-xdpi="96"
       inkscape:export-ydpi="96" />
    <path
       style="fill:none;stroke:#000000;stroke-width:0.6;stroke-linejoin:round;stroke-dasharray:none;stroke-opacity:1;paint-order:stroke markers fill;stop-color:#000000"
       d="M 24.021754,40.026729 36.005421,39.769054"
       id="path902" />
    <g
       aria-label="h"
       transform="translate(-1.5054531,1.2950992)"
       id="text1162"
       style="font-size:50.8px;font-family:Calibri;-inkscape-font-specification:Calibri;word-spacing:0.341312px;white-space:pre;inline-size:42.623;fill:none;stroke:#000000;stroke-width:0.1;stroke-linejoin:round;paint-order:stroke markers fill;stop-color:#000000">
      <path
         d="m 55.95983,31.904626 -5.953125,20.538281 q 5.109766,-7.317383 10.045899,-7.317383 2.232421,0 3.596679,1.364258 1.364258,1.339453 1.364258,3.646289 0,1.984375 -0.768945,4.39043 l -3.125391,9.773046 q -0.322461,0.992188 -0.322461,1.860352 0,0.545703 0.272852,0.868164 0.297656,0.297656 0.74414,0.297656 1.016993,0 2.182813,-1.215429 1.835547,-1.934766 3.323828,-5.382617 l 1.463476,0.471289 q -1.562695,4.067968 -3.894335,6.201171 -2.306836,2.108399 -4.340821,2.108399 -1.612304,0 -2.554882,-1.066602 -0.942579,-1.091406 -0.942579,-3.12539 0,-0.992188 0.372071,-2.158008 l 3.12539,-9.872266 q 0.396875,-1.314648 0.396875,-2.629296 0,-1.438672 -0.694531,-2.207618 -0.694531,-0.79375 -1.761133,-0.79375 -1.339453,0 -3.075781,1.190625 -2.629297,1.835547 -4.812109,5.18418 -2.182813,3.323828 -3.100586,6.697266 l -2.257227,8.334374 -4.167187,0.248047 9.450586,-32.891015 q 0.124023,-0.42168 0.124023,-0.843359 0,-0.644922 -0.644922,-0.992188 -0.620117,-0.347265 -2.505273,-0.347265 H 46.06276 l 0.520899,-1.860352 z"
         style="font-style:italic;font-family:'Century Schoolbook';-inkscape-font-specification:'Century Schoolbook Italic';fill:#000000;stroke:none"
         id="path1217" />
      <path
         style="fill:#ffffff;stroke:#cecece;stroke-width:0.600001;stroke-linejoin:round;paint-order:stroke markers fill;stop-color:#000000;fill-opacity:1;stroke-opacity:1;marker-start:url(#Arrow4)"
         d="M 116.92352,38.174024 V 67.830288"
         id="path291" />
    </g>
  </g>
</svg>
