<?xml version="1.0" encoding="UTF-8" standalone="no"?>
<!-- Created with Inkscape (http://www.inkscape.org/) -->

<svg
   version="1.1"
   id="svg5176"
   width="800"
   height="800"
   viewBox="0 0 800 800"
   sodipodi:docname="target-bullets-publicdomainvectors.org.svg"
   inkscape:version="1.2 (dc2aedaf03, 2022-05-15)"
   xmlns:inkscape="http://www.inkscape.org/namespaces/inkscape"
   xmlns:sodipodi="http://sodipodi.sourceforge.net/DTD/sodipodi-0.dtd"
   xmlns="http://www.w3.org/2000/svg"
   xmlns:svg="http://www.w3.org/2000/svg">
  <defs
     id="defs5180">
    <clipPath
       clipPathUnits="userSpaceOnUse"
       id="clipPath5194">
      <path
         d="M 0,600 H 600 V 0 H 0 Z"
         id="path5192" />
    </clipPath>
  </defs>
  <sodipodi:namedview
     id="namedview5178"
     pagecolor="#ffffff"
     bordercolor="#000000"
     borderopacity="0.25"
     inkscape:showpageshadow="2"
     inkscape:pageopacity="0.0"
     inkscape:pagecheckerboard="0"
     inkscape:deskcolor="#d1d1d1"
     showgrid="false"
     inkscape:zoom="1.04625"
     inkscape:cx="399.5221"
     inkscape:cy="400.4779"
     inkscape:window-width="1920"
     inkscape:window-height="1017"
     inkscape:window-x="-8"
     inkscape:window-y="-8"
     inkscape:window-maximized="1"
     inkscape:current-layer="g5184">
    <inkscape:page
       x="0"
       y="0"
       id="page5182"
       width="800"
       height="800" />
  </sodipodi:namedview>
  <g
     id="g5184"
     inkscape:groupmode="layer"
     inkscape:label="Page 1"
     transform="matrix(1.3333333,0,0,-1.3333333,0,800)">
    <path
       d="M 0,0.743 H 600 V 600 H 0 Z"
       style="fill:#1c1a19;fill-opacity:1;fill-rule:nonzero;stroke:none"
       id="path5186" />
    <g
       id="g5188">
      <g
         id="g5190"
         clip-path="url(#clipPath5194)">
        <g
           id="g5196"
           transform="translate(300.1284,62.8906)">
          <path
             d="M 0,0 C 131.073,0 237.978,106.907 237.978,237.98 237.978,369.054 131.073,475.958 0,475.958 -131.074,475.958 -237.978,369.054 -237.978,237.98 -237.978,106.907 -131.074,0 0,0"
             style="fill:#2b2929;fill-opacity:1;fill-rule:evenodd;stroke:none"
             id="path5198" />
        </g>
        <g
           id="g5200"
           transform="translate(600.2568,472.7002)">
          <path
             d="m 0,0 v -55.35 c -41.215,8.294 -68.577,19.371 -123.231,41.224 -31.373,12.545 -80.764,28.535 -106.355,-4.171 -34.483,-44.074 87.679,-52.268 108.565,-100.602 25.856,-59.835 -87.595,-93.8 43.419,-115.803 25.508,-4.285 51.953,-6.718 77.602,-2.371 v -67.379 c -36.491,-10.831 -67.81,-10.012 -126.18,-10.022 -87.542,0.228 -153.549,7.75 -239.044,25.214 -68.332,11.729 -150.858,-29.52 -235.033,-49.622 v 82.232 c 25.915,5.193 51.247,13.023 75.503,25.609 25.206,13.077 53.765,40.977 24.392,66.286 -19.943,17.182 -59.512,17.391 -99.895,21.968 v 90.147 c 2.978,0.36 5.981,0.685 9.065,1.001 46.166,4.169 99.37,0.293 136.269,32.983 35.157,31.146 27.421,29.826 73.686,51.831 31.843,15.145 63.047,29.873 95.72,43.241 64.961,25.934 107.339,11.901 166.375,-19.528 C -62.95,26.972 -42.892,12.701 0,0"
             style="fill:#2b2929;fill-opacity:1;fill-rule:evenodd;stroke:none"
             id="path5202" />
        </g>
        <g
           id="g5204"
           transform="translate(300.1284,538.8491)">
          <path
             d="m 0,0 c 71.321,0 135.304,-31.383 178.921,-81.084 l -2.024,0.81 c -31.373,12.545 -80.764,28.534 -106.354,-4.172 -34.484,-44.074 87.678,-52.267 108.564,-100.602 25.856,-59.835 -87.595,-93.8 43.42,-115.803 2.241,-0.378 4.492,-0.739 6.746,-1.084 -8.017,-28.802 -21.31,-55.404 -38.778,-78.698 -5.273,0.004 -10.776,0.011 -16.546,0.011 -87.542,0.227 -153.55,7.75 -239.044,25.213 -39.494,6.78 -83.731,-4.139 -130.286,-18.444 -15.476,22.212 -27.255,47.189 -34.466,74.036 1.746,0.853 3.486,1.727 5.221,2.627 25.207,13.077 53.766,40.978 24.392,66.286 -8.897,7.664 -21.701,11.95 -36.739,14.755 3.616,39.753 17.007,76.676 37.749,108.358 16.169,4.385 31.328,11.378 44.43,22.986 35.156,31.146 27.42,29.827 73.685,51.831 23.707,11.275 47.061,22.319 70.928,32.743 C -6.803,-0.089 -3.414,0 0,0"
             style="fill:#3c3c3d;fill-opacity:1;fill-rule:evenodd;stroke:none"
             id="path5206" />
        </g>
        <g
           id="g5208"
           transform="translate(300.1284,75.2314)">
          <path
             d="M 0,0 C 124.277,0 225.638,101.362 225.638,225.64 225.638,349.917 124.277,451.278 0,451.278 -124.277,451.278 -225.639,349.917 -225.639,225.64 -225.639,101.362 -124.277,0 0,0"
             style="fill:#ed731f;fill-opacity:1;fill-rule:evenodd;stroke:none"
             id="path5210" />
        </g>
        <g
           id="g5212"
           transform="translate(300.1284,78.1123)">
          <path
             d="M 0,0 C 122.691,0 222.757,100.067 222.757,222.759 222.757,345.45 122.691,445.516 0,445.516 -122.691,445.516 -222.758,345.45 -222.758,222.759 -222.758,100.067 -122.691,0 0,0"
             style="fill:#cb4f1f;fill-opacity:1;fill-rule:evenodd;stroke:none"
             id="path5214" />
        </g>
        <g
           id="g5216"
           transform="translate(300.1284,523.6284)">
          <path
             d="M 0,0 C 116.611,0 212.277,-89.606 221.939,-203.717 199.103,-306.362 96.003,-383.838 -27.754,-383.838 c -64.772,0 -123.879,21.233 -168.793,56.18 -16.72,31.263 -26.212,66.971 -26.212,104.901 C -222.759,-99.731 -123.026,0 0,0"
             style="fill:#e65e1b;fill-opacity:1;fill-rule:evenodd;stroke:none"
             id="path5218" />
        </g>
        <g
           id="g5220"
           transform="translate(279.5703,502.6631)">
          <path
             d="m 0,0 c 70.114,0 107.877,-56.838 84.346,-126.954 -23.532,-70.115 -99.448,-126.954 -169.564,-126.954 -70.114,0 -107.877,56.839 -84.345,126.954 C -146.031,-56.838 -70.116,0 0,0"
             style="fill:#f6812c;fill-opacity:1;fill-rule:evenodd;stroke:none"
             id="path5222" />
        </g>
        <g
           id="g5224"
           transform="translate(300.1284,119.4346)">
          <path
             d="m 0,0 c 99.931,0 181.436,81.504 181.436,181.436 0,99.932 -81.505,181.436 -181.436,181.436 -99.931,0 -181.436,-81.504 -181.436,-181.436 C -181.436,81.504 -99.931,0 0,0"
             style="fill:#fabf8b;fill-opacity:1;fill-rule:evenodd;stroke:none"
             id="path5226" />
        </g>
        <g
           id="g5228"
           transform="translate(300.1284,482.3071)">
          <path
             d="m 0,0 c 100.204,0 181.436,-81.231 181.436,-181.436 0,-33.517 -9.099,-64.901 -24.943,-91.844 -46.342,-42.653 -111.753,-69.237 -184.247,-69.237 -24.6,0 -48.38,3.07 -70.882,8.782 -49.832,32.342 -82.8,88.467 -82.8,152.299 C -181.436,-81.231 -100.204,0 0,0"
             style="fill:#fcd0ab;fill-opacity:1;fill-rule:evenodd;stroke:none"
             id="path5230" />
        </g>
        <g
           id="g5232"
           transform="translate(300.1284,482.3071)">
          <path
             d="m 0,0 c 16.84,0 33.139,-2.304 48.615,-6.597 21.869,-23.238 28.803,-59.392 15.173,-100.001 -23.533,-70.115 -99.448,-126.954 -169.564,-126.954 -33.17,0 -59.094,12.727 -74.719,33.557 -0.619,6.102 -0.941,12.293 -0.941,18.559 C -181.436,-81.231 -100.204,0 0,0"
             style="fill:#feeada;fill-opacity:1;fill-rule:evenodd;stroke:none"
             id="path5234" />
        </g>
        <g
           id="g5236"
           transform="translate(300.1284,164.6182)">
          <path
             d="m 0,0 c 75.044,0 136.253,61.206 136.253,136.253 0,75.046 -61.209,136.253 -136.253,136.253 -75.045,0 -136.253,-61.207 -136.253,-136.253 C -136.253,61.206 -75.045,0 0,0"
             style="fill:#e65e1b;fill-opacity:1;fill-rule:evenodd;stroke:none"
             id="path5238" />
        </g>
        <g
           id="g5240"
           transform="translate(300.1284,437.124)">
          <path
             d="m 0,0 c 25.917,0 50.142,-7.236 70.768,-19.798 0.146,-13.039 -2.088,-27.039 -6.98,-41.616 -23.533,-70.116 -99.448,-126.955 -169.564,-126.955 -7.329,0 -14.302,0.629 -20.891,1.821 -6.184,15.561 -9.587,32.53 -9.587,50.295 C -136.254,-61.002 -75.251,0 0,0"
             style="fill:#f6812c;fill-opacity:1;fill-rule:evenodd;stroke:none"
             id="path5242" />
        </g>
        <g
           id="g5244"
           transform="translate(300.1284,208.8652)">
          <path
             d="M 0,0 C 50.674,0 92.003,41.332 92.003,92.006 92.003,142.68 50.674,184.01 0,184.01 -50.674,184.01 -92.006,142.68 -92.006,92.006 -92.006,41.332 -50.674,0 0,0"
             style="fill:#fcd0ab;fill-opacity:1;fill-rule:evenodd;stroke:none"
             id="path5246" />
        </g>
        <g
           id="g5248"
           transform="translate(300.1284,392.8755)">
          <path
             d="m 0,0 c 23.634,0 45.186,-8.916 61.481,-23.563 -22.331,-57.969 -80.11,-105.695 -139.225,-117.658 -9.03,14.233 -14.262,31.113 -14.262,49.217 C -92.006,-41.192 -50.813,0 0,0"
             style="fill:#feeada;fill-opacity:1;fill-rule:evenodd;stroke:none"
             id="path5250" />
        </g>
        <g
           id="g5252"
           transform="translate(300.1284,253.6885)">
          <path
             d="M 0,0 C 25.987,0 47.18,21.195 47.18,47.183 47.18,73.169 25.987,94.364 0,94.364 -25.987,94.364 -47.183,73.169 -47.183,47.183 -47.183,21.195 -25.987,0 0,0"
             style="fill:#e65e1b;fill-opacity:1;fill-rule:evenodd;stroke:none"
             id="path5254" />
        </g>
        <g
           id="g5256"
           transform="translate(300.1284,348.0522)">
          <path
             d="m 0,0 c 15.926,0 30.009,-7.892 38.552,-19.978 -18.746,-25.307 -44.049,-46.555 -71.807,-60.671 -8.6,8.546 -13.928,20.385 -13.928,33.468 C -47.183,-21.124 -26.058,0 0,0"
             style="fill:#f6812c;fill-opacity:1;fill-rule:evenodd;stroke:none"
             id="path5258" />
        </g>
        <g
           id="g5260"
           transform="translate(359.1748,446.0586)">
          <path
             d="m 0,0 c -3.579,-0.79 -7.262,-6.495 -7.262,-10.891 0,-2.189 -5.379,-8.486 0.526,-13.375 4.789,-3.964 -0.836,-7.537 4.946,-7.537 4.786,0 8.27,-5.012 13.323,-5.268 4.106,-0.208 9.555,-2.902 11.509,3.435 0.21,0.679 6.743,-0.017 8.503,5.504 1.212,3.797 4.843,4.459 3.738,11.888 -0.023,0.164 -1.393,4.45 -1.553,5.57 -0.875,6.121 -5.007,9.127 -8.331,13.918 C 23.94,5.348 15.674,8.609 12.024,5.953 7.643,2.763 8.302,8.726 3.673,2.783 2.89,1.779 2.243,0.496 0,0"
             style="fill:#a4663b;fill-opacity:1;fill-rule:evenodd;stroke:none"
             id="path5262" />
        </g>
        <g
           id="g5264"
           transform="translate(371.7871,411.8232)">
          <path
             d="m 0,0 c 10.211,0 18.54,8.329 18.54,18.539 0,10.212 -8.329,18.54 -18.54,18.54 -10.211,0 -18.54,-8.328 -18.54,-18.54 C -18.54,8.329 -10.211,0 0,0"
             style="fill:#1c1a19;fill-opacity:1;fill-rule:evenodd;stroke:none"
             id="path5266" />
        </g>
        <g
           id="g5268"
           transform="translate(370.2256,446.7656)">
          <path
             d="m 0,0 2.313,13.364 0.771,-14.906 9.508,-12.979 18.119,0.9 -14.52,-3.854 -5.223,-11.38 1.624,-15.605 -9.158,13.293 -10.887,3.926 -9.638,-6.683 4.755,9.509 -1.028,8.867 -11.951,10.536 14.907,-3.983 z"
             style="fill:#1c1a19;fill-opacity:1;fill-rule:evenodd;stroke:none"
             id="path5270" />
        </g>
        <g
           id="g5272"
           transform="translate(151.3267,345.3945)">
          <path
             d="m 0,0 c -2.001,-3.068 -0.638,-9.72 2.44,-12.859 1.533,-1.563 2.1,-9.825 9.738,-9.183 6.194,0.52 4.678,-5.969 8.808,-1.92 3.417,3.35 9.415,2.21 13.202,5.565 3.077,2.725 8.855,4.616 5.814,10.51 -0.326,0.632 4.826,4.707 2.219,9.883 -1.793,3.559 0.335,6.573 -5.654,11.106 -0.132,0.1 -4.11,2.202 -5.008,2.89 -4.91,3.758 -9.964,3.012 -15.691,4.106 C 13.352,20.579 5.165,17.121 4.419,12.671 3.523,7.324 -0.179,12.044 0.675,4.56 0.819,3.294 1.255,1.926 0,0"
             style="fill:#a4663b;fill-opacity:1;fill-rule:evenodd;stroke:none"
             id="path5274" />
        </g>
        <g
           id="g5276"
           transform="translate(158.3428,356.2549)">
          <path
             d="m 0,0 c 7.311,7.168 19.049,7.051 26.216,-0.26 7.168,-7.312 7.052,-19.05 -0.26,-26.217 -7.31,-7.168 -19.048,-7.051 -26.216,0.26 C -7.428,-18.906 -7.311,-7.167 0,0"
             style="fill:#1c1a19;fill-opacity:1;fill-rule:evenodd;stroke:none"
             id="path5278" />
        </g>
        <g
           id="g5280"
           transform="translate(158.7236,353.6357)">
          <path
             d="M 0,0 -7.704,11.162 3.282,1.058 l 15.874,-2.611 12.309,13.327 -7.67,-12.917 4.236,-11.785 12.086,-10.005 -15.846,3.082 -10.523,-4.818 -2.204,-11.519 -3.262,10.119 -6.941,5.611 -15.909,-0.841 13.433,7.59 z"
             style="fill:#1c1a19;fill-opacity:1;fill-rule:evenodd;stroke:none"
             id="path5282" />
        </g>
        <g
           id="g5284"
           transform="translate(298.0337,262.8877)">
          <path
             d="m 0,0 c -2.967,-2.148 -4.071,-8.848 -2.319,-12.88 0.873,-2.008 -1.551,-9.929 5.813,-12.059 5.97,-1.728 2.235,-7.246 7.54,-4.94 4.388,1.907 9.582,-1.302 14.319,0.477 3.847,1.445 9.918,1.146 9.186,7.738 -0.079,0.706 6.19,2.671 5.606,8.436 -0.403,3.965 2.662,6.02 -1.31,12.393 -0.088,0.143 -3.052,3.526 -3.646,4.489 C 31.949,8.921 26.96,10.03 22.003,13.099 19.825,14.447 10.944,14.145 8.657,10.255 5.908,5.581 4.137,11.314 2.26,4.019 1.942,2.784 1.86,1.352 0,0"
             style="fill:#a4663b;fill-opacity:1;fill-rule:evenodd;stroke:none"
             id="path5286" />
        </g>
        <g
           id="g5288"
           transform="translate(308.4668,270.5234)">
          <path
             d="m 0,0 c 9.392,4.079 20.312,-0.224 24.393,-9.613 4.081,-9.392 -0.224,-20.313 -9.616,-24.393 -9.389,-4.081 -20.31,0.224 -24.39,9.615 C -13.694,-15.001 -9.389,-4.08 0,0"
             style="fill:#1c1a19;fill-opacity:1;fill-rule:evenodd;stroke:none"
             id="path5290" />
        </g>
        <g
           id="g5292"
           transform="translate(307.8867,267.9404)">
          <path
             d="m 0,0 -3.204,13.181 6.647,-13.366 13.894,-8.112 16.258,8.046 -11.781,-9.322 -0.255,-12.519 7.709,-13.665 -13.697,8.542 -11.549,-0.738 -6.175,-9.97 0.57,10.615 -4.476,7.722 -15.16,4.902 15.257,2.288 z"
             style="fill:#1c1a19;fill-opacity:1;fill-rule:evenodd;stroke:none"
             id="path5294" />
        </g>
        <g
           id="g5296"
           transform="translate(377.0693,197.8564)">
          <path
             d="m 0,0 c -2.965,-2.152 -4.069,-8.852 -2.317,-12.884 0.871,-2.008 -1.552,-9.927 5.812,-12.056 5.97,-1.727 2.235,-7.248 7.539,-4.943 4.389,1.908 9.582,-1.302 14.319,0.479 3.848,1.446 9.92,1.148 9.187,7.738 -0.079,0.706 6.19,2.671 5.605,8.437 -0.402,3.964 2.664,6.019 -1.31,12.392 C 38.748,-0.696 35.783,2.69 35.191,3.654 31.948,8.918 26.96,10.028 22.003,13.097 19.826,14.445 10.945,14.141 8.656,10.253 5.909,5.581 4.138,11.311 2.26,4.016 1.942,2.782 1.862,1.349 0,0"
             style="fill:#a4663b;fill-opacity:1;fill-rule:evenodd;stroke:none"
             id="path5298" />
        </g>
        <g
           id="g5300"
           transform="translate(387.5039,205.4893)">
          <path
             d="m 0,0 c 9.39,4.082 20.311,-0.225 24.392,-9.614 4.08,-9.39 -0.225,-20.31 -9.615,-24.391 -9.389,-4.081 -20.311,0.224 -24.392,9.613 C -13.694,-15.002 -9.39,-4.079 0,0"
             style="fill:#1c1a19;fill-opacity:1;fill-rule:evenodd;stroke:none"
             id="path5302" />
        </g>
        <g
           id="g5304"
           transform="translate(386.9238,202.9092)">
          <path
             d="m 0,0 -3.206,13.178 6.649,-13.364 13.892,-8.113 16.26,8.044 -11.781,-9.32 -0.255,-12.521 7.709,-13.663 -13.698,8.543 -11.55,-0.739 -6.175,-9.969 0.57,10.615 -4.476,7.723 -15.16,4.9 15.259,2.288 z"
             style="fill:#1c1a19;fill-opacity:1;fill-rule:evenodd;stroke:none"
             id="path5306" />
        </g>
        <g
           id="g5308"
           transform="translate(388.5469,337.6792)">
          <path
             d="m 0,0 c -3.661,-0.121 -8.329,-5.052 -9.136,-9.374 -0.401,-2.152 -6.844,-7.355 -1.937,-13.245 3.978,-4.774 -2.207,-7.255 3.478,-8.316 4.705,-0.878 7.21,-6.444 12.13,-7.623 3.998,-0.958 8.86,-4.607 11.945,1.264 0.332,0.629 6.625,-1.254 9.368,3.851 1.889,3.51 5.578,3.495 5.856,11 0.007,0.166 -0.553,4.63 -0.506,5.76 0.265,6.177 -3.245,9.89 -5.633,15.21 C 24.517,0.864 16.988,5.586 12.915,3.645 8.021,1.314 9.764,7.053 4.122,2.061 3.169,1.217 2.299,0.075 0,0"
             style="fill:#a4663b;fill-opacity:1;fill-rule:evenodd;stroke:none"
             id="path5310" />
        </g>
        <g
           id="g5312"
           transform="translate(401.4678,338.1592)">
          <path
             d="M 0,0 C 10.064,-1.879 16.7,-11.561 14.821,-21.626 12.943,-31.691 3.26,-38.327 -6.804,-36.448 -16.87,-34.569 -23.505,-24.887 -21.626,-14.821 -19.747,-4.757 -10.065,1.879 0,0"
             style="fill:#1c1a19;fill-opacity:1;fill-rule:evenodd;stroke:none"
             id="path5314" />
        </g>
        <g
           id="g5316"
           transform="translate(399.541,336.3457)">
          <path
             d="m 0,0 4.727,12.712 -1.98,-14.794 6.967,-14.503 17.975,-2.44 -14.98,-1.125 -7.225,-10.228 -1.264,-15.638 -6.565,14.749 -9.981,5.856 -10.699,-4.8 6.418,8.475 0.617,8.904 -9.815,12.552 13.922,-6.652 z"
             style="fill:#1c1a19;fill-opacity:1;fill-rule:evenodd;stroke:none"
             id="path5318" />
        </g>
      </g>
    </g>
  </g>
</svg>
